<svg width="20" height="20" viewBox="0 0 20 20" fill="none" xmlns="http://www.w3.org/2000/svg">
<path d="M19.2857 0H5.00001C4.60519 0 4.28572 0.319468 4.28572 0.714293V4.28572H0.714293C0.319468 4.28572 0 4.60519 0 5.00001V19.2857C0 19.6805 0.319468 20 0.714293 20H15C15.3948 20 15.7143 19.6805 15.7143 19.2857V15.7143H19.2857C19.6805 15.7143 20 15.3948 20 15V0.714293C20 0.319468 19.6805 0 19.2857 0V0ZM14.2857 18.5714H1.42859V5.7143H14.2857V18.5714H14.2857ZM18.5714 14.2857H15.7143V5.00001C15.7143 4.60519 15.3948 4.28572 15 4.28572H5.7143V1.42859H18.5715V14.2857H18.5714Z" fill="#707070"/>
</svg>
