<svg xmlns="http://www.w3.org/2000/svg" width="40" height="40" viewBox="0 0 40 40"><defs><style>.a{fill:#707070;}</style></defs><g transform="translate(0 0)"><path class="a" d="M169.788,193.823a1,1,0,0,0,.705.29,1.014,1.014,0,0,0,.705-.29l7.344-7.344a1,1,0,0,0-1.411-1.411l-6.647,6.647-2.307-2.307a1,1,0,1,0-1.411,1.411Z" transform="translate(-152.66 -169.441)"/><path class="a" d="M102.766,40.562a1.058,1.058,0,0,0,.556-.166,1,1,0,1,0-1.386-.282A.99.99,0,0,0,102.766,40.562Z" transform="translate(-93.322 -35.367)"/><path class="a" d="M68.073,69.069a1,1,0,1,0-.705-.29A1,1,0,0,0,68.073,69.069Z" transform="translate(-61.509 -61.509)"/><path class="a" d="M142.3,19.394a1.041,1.041,0,0,0,.382-.075,1,1,0,1,0-.382.075Z" transform="translate(-129.576 -15.958)"/><path class="a" d="M39.01,103.588a.97.97,0,0,0,.556.166,1,1,0,0,0,.83-.44.99.99,0,0,0-.274-1.378,1,1,0,1,0-1.112,1.651Z" transform="translate(-35.367 -93.322)"/><path class="a" d="M18.016,143.181a1.041,1.041,0,0,0,.382.075.994.994,0,1,0-.382-.075Z" transform="translate(-15.958 -129.538)"/><path class="a" d="M185.163,6.45a1.482,1.482,0,0,0,.191-.017.994.994,0,1,0-1.17-.78A1.01,1.01,0,0,0,185.163,6.45Z" transform="translate(-168.881 -4.094)"/><path class="a" d="M5.164,186.242a1.62,1.62,0,0,0,.191.017,1.009,1.009,0,0,0,.979-.8.994.994,0,0,0-1.95-.39h0A1,1,0,0,0,5.164,186.242Z" transform="translate(-4.002 -168.972)"/><path class="a" d="M34.141,5.859A19.868,19.868,0,0,0,20,0a1,1,0,1,0,0,1.992A18.008,18.008,0,1,1,1.992,20,1,1,0,1,0,0,20,20,20,0,0,0,34.141,34.141a19.995,19.995,0,0,0,0-28.282Z" transform="translate(0 0)"/></g></svg>