<svg width="154" height="49" viewBox="0 0 154 49" xmlns="http://www.w3.org/2000/svg">
<defs><style>.b-header__logo-text{fill: #000;}.b-header__logo-img{fill: #36c;}</style></defs>
<path d="M82.9242 21.0912L79.1017 10.6074L75.2294 21.0912H82.9242ZM83.0113 3.73438L94.292 31.2637H86.6346L84.8167 26.3704H73.287L71.519 31.2637H64.0234L75.2668 3.73438H83.0113Z" class="b-header__logo-text"></path>
<path d="M108.81 31.7483C99.509 31.7483 93.8687 26.2823 93.8687 17.4794C93.8687 8.78854 99.7082 3.28516 109.009 3.28516C116.505 3.28516 121.772 7.76755 122.793 14.0304H115.882C115.098 10.2702 112.097 8.63912 108.76 8.63912C104.564 8.63912 101.314 11.864 101.314 17.4794C101.314 23.2941 104.564 26.4068 108.847 26.4068C111.898 26.4068 115.272 25.1866 116.094 21.0155H123.004C121.946 27.3905 116.343 31.7483 108.81 31.7483Z" class="b-header__logo-text"></path>
<path d="M133.588 3.73438V21.5768L146.263 3.73438H153.061V31.2637H146.263V13.4213L133.588 31.2637H126.802V3.73438H133.588Z" class="b-header__logo-text"></path>
<path d="M12.4013 8.67841L0 0V35L12.4013 26.3216V8.67841Z" class="b-header__logo-img"></path>
<path d="M37.5898 8.67841V26.3216L49.9911 35V0L37.5898 8.67841Z" class="b-header__logo-img"></path>
<path d="M68.6523 46H67.1387V40.1211H65.2002V38.8613H70.5908V40.1211H68.6523V46ZM91.561 46V38.85H96.221V40.11H93.171V41.78H95.611V42.96H93.171V44.74H96.381V46H91.561ZM116.948 46L119.298 38.85H121.408L123.728 46H122.038L121.548 44.41H118.958L118.468 46H116.948ZM120.258 40.17L119.308 43.26H121.198L120.258 40.17ZM144.706 46V38.85H146.846L148.516 43.3L150.166 38.85H152.266V46H150.656V40.98L148.676 46H148.146L146.156 40.98V46H144.706Z" class="b-header__logo-text"></path>
</svg>