<svg xmlns="http://www.w3.org/2000/svg" width="346" height="117.587" viewBox="0 0 346 117.587"><defs><style>.a{opacity:0.303;}.b{fill:#8c8c8b;}</style></defs><g class="a" transform="translate(0 0)"><path class="b" d="M1479.8-696.472l-10.735-10.736h5.784l4.951,4.951v5.785ZM1140.672-589.621l-6.875-6.874v-5.786l12.66,12.66Zm27.52,0-34.4-34.4V-629.8l40.18,40.18Zm27.52,0L1133.8-651.536v-5.783l67.7,67.7Zm27.521,0L1133.8-679.056v-5.783l95.221,95.218Zm27.954,0L1133.8-707.012v-.2h5.589l117.587,117.587Zm27.955,0L1161.556-707.208h5.784l117.586,117.587Zm27.957,0L1189.51-707.208h5.784l117.588,117.587Zm27.955,0L1217.465-707.208h5.784l117.587,117.587Zm27.955,0L1245.42-707.208h5.785l117.587,117.587Zm27.954,0L1273.376-707.208h5.784l117.588,117.587Zm27.955,0L1301.33-707.208h5.784L1424.7-589.621Zm27.956,0L1329.285-707.208h5.784l117.588,117.587Zm27.955,0L1357.24-707.208h5.785L1479.8-590.438v.817Zm4.968-22.986-94.6-94.6h5.785l88.816,88.817v5.785Zm0-27.955-66.646-66.646h5.784l60.861,60.861v5.785Zm0-27.955-38.69-38.691h5.784l32.906,32.9v5.786Z" transform="translate(-1133.796 707.208)"/></g></svg>