<svg xmlns="http://www.w3.org/2000/svg" width="122.437" height="34.667" viewBox="0 0 122.437 34.667"><defs><style>.a{fill:#078ebf;}.b{fill:#1f669e;}.c{fill:#2f387a;}.d{fill:#00b3dd;}.e{fill:#00d7fb;}</style></defs><g transform="translate(0.015 -0.001)"><g transform="translate(-0.015 0.001)"><path class="a" d="M40.008,57.257c.678-.063.726.9.421,1.3a.527.527,0,0,1-.273.189c-1.241.3-2.56.747-3.822,1.157a3.125,3.125,0,0,0-.473-1.4c1.377-.442,2.8-.92,4.148-1.246" transform="translate(-16.999 -27.154)"/><path class="b" d="M63.387,56.727c.116-.21.342-.526.578-.557a4.248,4.248,0,0,1,1.283.526c.226.342-.683,1.577-.852,1.5a3.9,3.9,0,0,0-1.183-.5c-.263-.168.168-.978.173-.983" transform="translate(-29.931 -26.64)"/><path class="b" d="M60.7,56.388c.032-.068.3-.678.636-.678l.484.063c.389.116-.095,1.267-.526,1.519a.215.215,0,0,1-.152.037l-.447-.058c-.252-.058-.131-.573,0-.883" transform="translate(-28.708 -26.422)"/><path class="b" d="M46.35,56.841a.826.826,0,0,1,.526-.71,33.28,33.28,0,0,1,6.472-.573c.489.121.058,1.251-.373,1.514a.575.575,0,0,1-.168.058,30.252,30.252,0,0,0-5.967.526c-.563,0-.484-.8-.484-.815" transform="translate(-21.974 -26.349)"/><path class="a" d="M30.262,60.313a.709.709,0,0,1,.345-.943c.019-.009.039-.017.06-.025a.9.9,0,0,1,1.051,1.283.862.862,0,0,1-1.472-.315M29,60.629A2.674,2.674,0,0,0,32.092,62c1.714-.888,1.051-3.727-.931-4.048A1.893,1.893,0,0,0,29,60.629" transform="translate(-13.641 -27.471)"/><path class="c" d="M64.927,44.6c.079-.279.237-.61.526-.626a11.47,11.47,0,0,1,1.167.237,6.577,6.577,0,0,1,1.167.4,11.716,11.716,0,0,0-.415,1.672,7.064,7.064,0,0,0-1.115-.384,10.537,10.537,0,0,0-1.12-.221c-.468-.173-.231-1.051-.231-1.078" transform="translate(-30.746 -20.854)"/><path class="b" d="M27.6,48.428a.726.726,0,0,1,.447-.846c2.1-.662,4.28-1.225,6.388-1.672a3.435,3.435,0,0,0,.273,1.656c-2.014.431-4.08.967-6.109,1.577-.8.152-1-.726-1-.736" transform="translate(-13.073 -21.774)"/><path class="a" d="M17.107,53.054a.673.673,0,0,1,.252-.873l.258-.116c1.078-.526,2.2-.978,3.344-1.43a.91.91,0,0,1,1.009,1.235.665.665,0,0,1-.3.268c-1.094.431-2.166.889-3.2,1.367l-.247.11c-.741.247-1.115-.573-1.12-.584" transform="translate(-8.072 -24.008)"/><path class="b" d="M57.524,44.294a.794.794,0,0,1,.594-.7c.778,0,1.509,0,2.2.032.636.152.41,1.383-.042,1.656a.619.619,0,0,1-.2.058q-.983-.063-2.1-.032c-.526-.074-.5-.773-.452-1.009" transform="translate(-27.26 -20.673)"/><path class="b" d="M48.54,45.764a3.249,3.249,0,0,0-.11-1.577q1.577-.229,3.039-.347c.747.042.673,1.151.289,1.535a.615.615,0,0,1-.331.168q-1.4.121-2.907.331v-.105" transform="translate(-22.96 -20.792)"/><path class="d" d="M12.625,56.491c-.142-.231-.284-.689.084-.925.247-.137.526-.268.762-.4.662-.289,1.4.641,1.151,1.2a.467.467,0,0,1-.205.221c-.247.131-.494.258-.731.389-.415.189-.873-.168-1.051-.478" transform="translate(-5.908 -26.135)"/><path class="c" d="M70.049,44.818c.095-.331.31-.857.494-.757.342.358-.2,2.066-.526,2.1-.21,0-.163-.715,0-1.33m-.526-.273c-.195.752-.62,2.949-.074,3.233.946.095,2.171-4.4,1.456-5.336-.347-.452-.967.489-1.383,2.1" transform="translate(-32.787 -20.083)"/><path class="b" d="M41.993,44.248a1.052,1.052,0,0,1,.72-1.1c.867-.095,1.22,1.094.715,1.772s-1.314.31-1.425-.563a.7.7,0,0,1,0-.105m-1.351.273c.152,1.141,1.083,2.671,2.592,2.319,2.1-.715,2.34-4.358.347-5.257-1.577-.72-3.218.9-2.939,2.944" transform="translate(-19.257 -19.639)"/><path class="c" d="M54.611,31.632a.7.7,0,0,1,.526-.747A29.381,29.381,0,0,1,60.5,31a6.114,6.114,0,0,0,.11,1.761,28.288,28.288,0,0,0-5.257-.116c-.752-.058-.762-1-.762-1.015" transform="translate(-25.882 -14.614)"/><path class="b" d="M42.448,32.748a.8.8,0,0,1,.594-.831c1.377-.237,2.718-.421,4-.557.831,0,1.051,1.115.62,1.577a.661.661,0,0,1-.363.189c-1.262.131-2.576.315-3.927.526-.862.047-.925-.91-.925-.915" transform="translate(-20.123 -14.873)"/><path class="d" d="M23.09,36.919a.852.852,0,0,1,.526-.925c1.419-.447,2.855-.852,4.285-1.22a.915.915,0,0,1,.831,1.472.787.787,0,0,1-.389.252c-1.4.358-2.813.757-4.206,1.2a.9.9,0,0,1-1.045-.737c0-.014,0-.028-.006-.042" transform="translate(-10.938 -16.489)"/><path class="e" d="M14.311,38.564a.91.91,0,0,1,.936,1.4.857.857,0,0,1-.368.289c-1.267.442-2.324,1.051-3.528,1.53-.994.421-1.425.71-2.287,1.136a3.984,3.984,0,0,0-.694-1.635c.878-.431,1.325-.731,2.345-1.157,1.22-.526,2.3-1.109,3.6-1.577" transform="translate(-3.961 -18.276)"/><path class="c" d="M71.933,33.141c.247.331.3,1.64.074,1.751H71.97a4.175,4.175,0,0,0-1.267-.741A5.8,5.8,0,0,0,70.64,32.4a4.326,4.326,0,0,1,1.293.757" transform="translate(-33.494 -15.366)"/><path class="a" d="M36.3,34.318a.831.831,0,0,1,.584-.952l1.051-.221a.915.915,0,0,1,.831,1.446.748.748,0,0,1-.436.294l-1.051.216a.878.878,0,0,1-.976-.768l0-.016" transform="translate(-17.199 -15.718)"/><path class="c" d="M66.666,30.517c0-.347.1-.915.478-.867.726.247.762,1.982.263,2.182-.358.137-.736-.526-.741-1.314m-.962-.152c.058,1.251.589,3.081,1.609,3.239,1.63,0,1.383-4.274.074-5.441-.936-.841-1.772.252-1.682,2.2" transform="translate(-31.15 -13.22)"/><path class="e" d="M3.181,44.652a1.1,1.1,0,0,1,.268-1.314c.768-.358,1.5.846,1.209,1.635-.247.694-1.051.557-1.435-.237,0-.032-.032-.074-.042-.105m-1.051.436c.568,1.462,1.982,2.518,3.186,1.761,1.83-1.467.279-5.2-1.688-5.331-1.446-.074-2.224,1.761-1.5,3.591" transform="translate(-0.87 -19.68)"/><path class="d" d="M-.007,32.844a1.114,1.114,0,0,1,.379-.978A31.862,31.862,0,0,1,3.773,30a3.064,3.064,0,0,0,.394,1.688A31.348,31.348,0,0,0,.75,33.549c-.557.237-.757-.5-.757-.7" transform="translate(0.015 -14.228)"/><path class="a" d="M18.169,24.287a.92.92,0,0,1,.6-.915C21.155,22.594,23.6,21.922,26,21.38a3.042,3.042,0,0,0,.494,1.661,73.584,73.584,0,0,0-7.266,2.008.826.826,0,0,1-1.02-.567.843.843,0,0,1-.031-.2" transform="translate(-8.608 -10.14)"/><path class="b" d="M53.7,19.884a3.486,3.486,0,0,0-.526-1.577,30.491,30.491,0,0,1,4.442.074c.736.179,1.051,1.362.731,1.609a.432.432,0,0,1-.184.047,30.851,30.851,0,0,0-4.469-.074v-.105" transform="translate(-25.208 -8.659)"/><path class="c" d="M64.709,19.842c0-.058-.095-.578.237-.526a8.032,8.032,0,0,1,2.24.883,2.366,2.366,0,0,1,1.02,1.172c.163.526.394,1.209.526,1.74-.221-.852-1.125-1.577-2.765-2.04-.179-.053-.363-.105-.552-.147-.457-.189-.673-.888-.71-1.051" transform="translate(-30.675 -9.16)"/><path class="d" d="M8.51,27.531a1.251,1.251,0,0,1,.71-1.309c.92-.315,1.472.683,1.083,1.519a.914.914,0,0,1-1.74,0,1.448,1.448,0,0,1-.053-.216M7.1,28.151a2.306,2.306,0,0,0,3.354,1.777c2.276-1.377,1.866-4.816-.121-5.4C8.494,24,6.681,26.017,7.1,28.151" transform="translate(-3.329 -11.591)"/><path class="a" d="M34.546,19.66a.925.925,0,0,1,.678-1.119l.026-.006a1.146,1.146,0,0,1,1.141,1.709c-.494.726-1.667.342-1.845-.6m-1.577.342a3.006,3.006,0,0,0,3.575,2.287c2.413-.9,1.877-4.206-.273-5.126a2.382,2.382,0,0,0-3.3,2.839" transform="translate(-15.579 -8.021)"/><path class="b" d="M46.647,17.892a.762.762,0,0,1,.473-.969.739.739,0,0,1,.116-.03,1.226,1.226,0,0,1,1.051,1.84c-.526.6-1.472.037-1.661-.841m-1.5,0c.279,1.32,1.577,3.012,3.349,2.76,2.229-.557,1.688-3.759-.331-4.942-1.782-1.051-3.449.152-3.018,2.182" transform="translate(-21.362 -7.267)"/><path class="d" d="M23.468,12.478a2.1,2.1,0,0,0-.358-1.262c1.814-.5,3.628-.925,5.394-1.272.873-.089,1.251.72.883,1.12a.739.739,0,0,1-.368.195c-1.824.358-3.68.8-5.557,1.309a.508.508,0,0,0,0-.089" transform="translate(-10.952 -4.713)"/><path class="c" d="M60.587,10.267c-.063-.116-.247-.473,0-.4a5.406,5.406,0,0,1,1.63.794,5.042,5.042,0,0,1,1,1.377h-.037a5.6,5.6,0,0,0-1.677-.82,2.689,2.689,0,0,1-.91-.931" transform="translate(-28.667 -4.674)"/><path class="c" d="M56.727,9.526c-.116-.205-.221-.526.1-.526l.626.116c.578.158,1.241,1.146.994,1.314a.219.219,0,0,1-.142,0c-.21-.047-.426-.084-.647-.121a1.8,1.8,0,0,1-.931-.783" transform="translate(-26.842 -4.269)"/><path class="b" d="M37.19,9.458a.547.547,0,0,1,.489-.6,43,43,0,0,1,8.454-.273c.752.142,1.272,1.088.967,1.283a.424.424,0,0,1-.184.032,44.424,44.424,0,0,0-8.706.284.967.967,0,0,1-1.02-.726" transform="translate(-17.63 -4.027)"/><path class="d" d="M16.114,13.111a1.052,1.052,0,0,1,.768-1.051.82.82,0,0,1,.962,1.257c-.468.726-1.577.647-1.714-.126V13.1m-1.483.384C14.7,14.8,16,15.829,17.77,15.209c2.271-1,2.25-3.628.473-4.343a2.749,2.749,0,0,0-3.6,2.629" transform="translate(-6.937 -5.073)"/><path class="b" d="M49.729,2.229c-.21-.2-.184-.258-.168-.284a.214.214,0,0,1,.1,0,9.479,9.479,0,0,1,1.015.247,6.309,6.309,0,0,1,1,.394c.389.284.736.568,1.262.962a6.194,6.194,0,0,0-1.051-.415,10.782,10.782,0,0,0-1.051-.263,3.2,3.2,0,0,1-1.051-.647" transform="translate(-23.492 -0.92)"/><path class="d" d="M16.277,4.54a.783.783,0,0,1,.563-.589C18.7,3.373,20.583,2.9,22.428,2.49a1.53,1.53,0,0,0,.457.936A58.026,58.026,0,0,0,16.966,5c-.636.142-.71-.279-.689-.436" transform="translate(-7.71 -1.181)"/><path class="d" d="M6.738,8.634a1.268,1.268,0,0,1,.594-.72l.221-.126c.936-.452,1.908-.888,2.9-1.3.6-.195.72.284.526.615a1.051,1.051,0,0,1-.489.452c-1.051.431-2.1.894-3.07,1.377l-.237.116c-.526.216-.526-.252-.468-.431" transform="translate(-3.166 -3.057)"/><path class="b" d="M42.919,1.4c-.105-.147-.173-.326.126-.347a18.238,18.238,0,0,1,1.919.11c.6.063,1.372.773,1.188.915a.233.233,0,0,1-.137,0c-.636-.063-1.314-.105-2.035-.116a1.73,1.73,0,0,1-1.051-.568" transform="translate(-20.304 -0.498)"/><path class="d" d="M37.465.86c.7,0,1.246.578,1.051.81a.379.379,0,0,1-.247.095c-.9.047-1.851.121-2.823.231a1.756,1.756,0,0,0-.647-.92C35.72.97,36.614.9,37.465.86" transform="translate(-16.496 -0.408)"/><path class="d" d="M29.322,1.472c-.079-.184-.074-.526.436-.631.8-.11,1.43.526,1.13.915a1.1,1.1,0,0,1-1.577-.284m-1.241.252a2.8,2.8,0,0,0,3.154,1.257C32.8,2.524,32.613,1.2,31.372.474,29.679-.51,27.65.137,28.028,1.525a.637.637,0,0,0,.063.184" transform="translate(-13.263 -0.001)"/><path class="b" d="M92.367,11.713h-.888v3.759h-1.54V11.713H89.05V16.26h2.991V17.27h.852v-1.8h-.526Zm4.29,3.759h-2.1V14.363h1.8v-.789h-1.8V12.522h2.1v-.81h-3V16.26h3Zm1.83-1.115h1.54v1.9h.889V11.713h-.889v1.861h-1.54V11.713h-.894V16.26h.894Zm4.4,1.9h.889V12.507h1.188v-.794h-3.27v.794h1.188Zm3.754-1.714h.873a1.477,1.477,0,0,0,1.1-.4,1.389,1.389,0,0,0,.4-1.009,1.372,1.372,0,0,0-.4-1.009,1.477,1.477,0,0,0-1.1-.41h-1.761V16.26h.888Zm0-2.04h.831a.658.658,0,0,1,.478.168.6.6,0,0,1,.179.457.578.578,0,0,1-.179.447.661.661,0,0,1-.478.173h-.836Zm5.62,2.04h.878a1.457,1.457,0,0,0,1.094-.4,1.372,1.372,0,0,0,.41-1.009,1.356,1.356,0,0,0-.41-1.009,1.462,1.462,0,0,0-1.094-.41h-1.761V16.26h.883Zm0-2.04h.836a.658.658,0,0,1,.478.168.621.621,0,0,1,.179.457.6.6,0,0,1-.179.447.661.661,0,0,1-.478.173h-.836Zm3.3,3.754.273-.8h1.614l.273.8h.925l-1.661-4.548h-.7l-1.656,4.548Zm1.1-3.207.557,1.656h-1.136Zm3.906,2.466a.752.752,0,0,1-.778-.641h-.883a1.577,1.577,0,0,0,1.656,1.419,1.8,1.8,0,0,0,1.172-.373,1.209,1.209,0,0,0,.452-.983,1.051,1.051,0,0,0-.657-1.051,1.052,1.052,0,0,0,.615-.957,1.127,1.127,0,0,0-.431-.915,1.893,1.893,0,0,0-2.213,0,1.651,1.651,0,0,0-.563,1.051h.883a.917.917,0,0,1,.268-.473.81.81,0,0,1,.988-.032.526.526,0,0,1,.179.41.563.563,0,0,1-.163.442.659.659,0,0,1-.457.152h-.594v.726h.589a.73.73,0,0,1,.526.158.588.588,0,0,1,.179.457.525.525,0,0,1-.2.442A.778.778,0,0,1,120.568,15.519Zm5.51.384a1.231,1.231,0,0,0,.379-.952,1.092,1.092,0,0,0-.284-.783,1.4,1.4,0,0,0-.347-.226,1.051,1.051,0,0,0,.563-.967A1.151,1.151,0,0,0,126,12.06a1.477,1.477,0,0,0-1.025-.336H123.2v4.548h1.9a1.42,1.42,0,0,0,.994-.363Zm-2.029-3.4h.867a.613.613,0,0,1,.431.137.526.526,0,0,1,.025.743l-.025.025a.62.62,0,0,1-.431.142h-.867Zm0,2.965V14.352h.925a.557.557,0,0,1,.431.962.579.579,0,0,1-.431.158Zm5.983-2.124V16.26h.888V11.713h-.794l-1.766,2.913V11.713h-.888V16.26h.789ZM132.9,16.26h.883V12.507h1.193v-.794H131.7v.794H132.9Zm5.42-2.918V16.26h.889V11.713h-.789l-1.772,2.913V11.713h-.889V16.26h.794Zm2.744,2.918.747-1.714h.731V16.26h.889V11.713h-1.766a1.514,1.514,0,0,0-1.051.384,1.393,1.393,0,0,0,.363,2.287l-.941,1.893Zm.168-3.6a.651.651,0,0,1,.478-.173h.831v1.272h-.831a.646.646,0,0,1-.478-.184.62.62,0,0,1-.179-.463.6.6,0,0,1,.152-.452ZM92.367,20.251h-.888V24.01h-1.54V20.251H89.05V24.8h2.991v1.009h.852V23.989h-.526ZM96.226,24.8h.889V20.251h-.794l-1.772,2.918V20.251h-.889V24.8h.794l1.772-2.923Zm4.532.032v-.578q1.934-.069,1.935-1.9a1.887,1.887,0,0,0-.463-1.367,2.1,2.1,0,0,0-1.456-.526v-.447h-.888v.447a2.1,2.1,0,0,0-1.456.526,1.887,1.887,0,0,0-.468,1.367q0,1.819,1.919,1.893V24.8Zm0-3.586a1.094,1.094,0,0,1,.8.3,1.575,1.575,0,0,1,0,1.677,1.094,1.094,0,0,1-.8.3Zm-1.667,1.977a1.6,1.6,0,0,1,0-1.677,1.094,1.094,0,0,1,.8-.3v2.276a1.094,1.094,0,0,1-.82-.321Zm5.315-.137h.878a1.466,1.466,0,0,0,1.094-.41,1.351,1.351,0,0,0,.4-1.009,1.367,1.367,0,0,0-.4-1.009,1.465,1.465,0,0,0-1.109-.41H103.5V24.8h.889Zm0-2.045h.831a.651.651,0,0,1,.478.173.6.6,0,0,1,.179.452.585.585,0,0,1-.179.452.646.646,0,0,1-.478.168h-.831Zm6.309,2.629a6.1,6.1,0,0,0,.079-1.146,6.009,6.009,0,0,0-.079-1.141,1.328,1.328,0,0,0-.389-.694,1.788,1.788,0,0,0-2.434,0,1.319,1.319,0,0,0-.384.689,6.107,6.107,0,0,0-.074,1.146,6.107,6.107,0,0,0,.074,1.146,1.3,1.3,0,0,0,.384.689,1.788,1.788,0,0,0,2.434,0,1.31,1.31,0,0,0,.384-.71Zm-.862-.268a.825.825,0,0,1-.179.4.7.7,0,0,1-.568.252.737.737,0,0,1-.573-.252.828.828,0,0,1-.173-.394,5.633,5.633,0,0,1-.042-.878,5.7,5.7,0,0,1,.042-.883.856.856,0,0,1,.173-.394.74.74,0,0,1,.573-.242.7.7,0,0,1,.568.242.805.805,0,0,1,.179.394,5.511,5.511,0,0,1,.047.883A5.381,5.381,0,0,1,109.853,23.405ZM115,21.513a1.151,1.151,0,0,0-.384-.915,1.484,1.484,0,0,0-1.025-.342h-1.824v4.553h1.9a1.419,1.419,0,0,0,1.015-.352,1.231,1.231,0,0,0,.379-.952,1.11,1.11,0,0,0-.284-.789,1.541,1.541,0,0,0-.342-.242,1.052,1.052,0,0,0,.563-.988Zm-2.345-.463h.867a.62.62,0,0,1,.431.142.526.526,0,0,1,.025.743l-.025.025a.62.62,0,0,1-.431.142h-.867Zm1.362,2.813a.62.62,0,0,1-.436.152h-.925V22.879h.925a.62.62,0,0,1,.436.152.605.605,0,0,1,0,.815Zm2.292-3.154a1.367,1.367,0,0,0-.389.689,6.637,6.637,0,0,0-.074,1.146,6.637,6.637,0,0,0,.074,1.146,1.348,1.348,0,0,0,.389.689,1.788,1.788,0,0,0,2.434,0,1.348,1.348,0,0,0,.389-.689,6.105,6.105,0,0,0,.079-1.146,6.01,6.01,0,0,0-.079-1.141,1.362,1.362,0,0,0-.389-.694A1.788,1.788,0,0,0,116.3,20.708Zm1.966.952a5.513,5.513,0,0,1,.047.883,5.383,5.383,0,0,1-.047.873.875.875,0,0,1-.179.4.7.7,0,0,1-.568.252.737.737,0,0,1-.573-.252.779.779,0,0,1-.173-.394,5.447,5.447,0,0,1-.047-.878,5.513,5.513,0,0,1,.047-.883.8.8,0,0,1,.173-.394.741.741,0,0,1,.573-.242.7.7,0,0,1,.568.242.86.86,0,0,1,.179.358Zm5.357,3.154V20.251h-.794l-1.772,2.918V20.251h-.883V24.8h.789l1.772-2.923V24.8Zm-1.719-5.31a.368.368,0,0,1-.409-.322.351.351,0,0,1,0-.078h-.626a.846.846,0,0,0,.315.7,1.308,1.308,0,0,0,1.441,0,.862.862,0,0,0,.315-.7h-.626a.376.376,0,0,1-.41.368Zm4.1,2.14h.873a.915.915,0,0,1,.263-.468.721.721,0,0,1,.526-.179.736.736,0,0,1,.584.252.76.76,0,0,1,.163.31,2.825,2.825,0,0,1,.058.584h-1.409v.736h1.393a2.9,2.9,0,0,1-.058.6.784.784,0,0,1-.163.315.8.8,0,0,1-1.356-.389h-.883a1.719,1.719,0,0,0,2.881.941,1.348,1.348,0,0,0,.389-.689,6.637,6.637,0,0,0,.074-1.146,6.637,6.637,0,0,0-.074-1.146,1.367,1.367,0,0,0-.389-.689,1.682,1.682,0,0,0-2.881.941Zm4.327,3.154h.888V20.251h-.888Zm1.9-2.418,1.525-2.134H132.7l-1.472,2.171,1.577,2.382H133.9Zm3.712-2.171a1.668,1.668,0,0,0-1.22.478,1.367,1.367,0,0,0-.389.689,6.741,6.741,0,0,0-.068,1.146,6.741,6.741,0,0,0,.068,1.146,1.348,1.348,0,0,0,.389.689,1.788,1.788,0,0,0,2.434,0,1.309,1.309,0,0,0,.389-.689,6.15,6.15,0,0,0,.079-1.146,6.009,6.009,0,0,0-.079-1.141,1.328,1.328,0,0,0-.389-.694,1.667,1.667,0,0,0-1.214-.494Zm.747,3.2a.825.825,0,0,1-.179.4.7.7,0,0,1-.568.252.737.737,0,0,1-.573-.252.828.828,0,0,1-.173-.394,5.447,5.447,0,0,1-.047-.878,5.512,5.512,0,0,1,.047-.883.856.856,0,0,1,.173-.394.74.74,0,0,1,.573-.242.7.7,0,0,1,.568.242.805.805,0,0,1,.179.394,5.512,5.512,0,0,1,.047.883A5.382,5.382,0,0,1,136.687,23.405Zm1.908-3.154V24.8h.9V22.879h1.54v1.9h.883V20.251h-.883v1.84h-1.54v-1.84Zm4.358,1.13a6.637,6.637,0,0,0-.074,1.146,6.637,6.637,0,0,0,.074,1.146,1.348,1.348,0,0,0,.389.689,1.788,1.788,0,0,0,2.434,0,1.348,1.348,0,0,0,.389-.689,6.106,6.106,0,0,0,.079-1.146,6.009,6.009,0,0,0-.079-1.141,1.363,1.363,0,0,0-.363-.715,1.788,1.788,0,0,0-2.434,0,1.367,1.367,0,0,0-.415.689Zm.862.263a.758.758,0,0,1,.173-.394.73.73,0,0,1,.573-.242.715.715,0,0,1,.568.242.913.913,0,0,1,.179.394,5.512,5.512,0,0,1,.047.883,5.382,5.382,0,0,1-.047.873.936.936,0,0,1-.179.4.716.716,0,0,1-.568.252.731.731,0,0,1-.747-.647,5.445,5.445,0,0,1-.047-.878,5.532,5.532,0,0,1,.047-.9Zm5.783,2.234.867-1.73v2.629h.889V20.251h-.873l-1.183,2.46-1.209-2.46h-.878V24.8h.888V22.175l.857,1.682Zm3.77-.71V20.251h-.889V24.8h.794l1.772-2.923V24.8h.888V20.251h-.794Zm3.68,1.635h.889V20.251h-.889Zm3.428-4.553h-1.051l-1.472,2.171L159.53,24.8h1.088l-1.672-2.45Zm3.38,0-1.756,2.9v-2.9h-.889V24.8h.794l1.766-2.923V24.8h.889V20.251ZM89.938,31.665V28.752H89.05V33.3h.789l1.772-2.923V33.3H92.5V28.752H91.7Zm6.12,0V28.752H95.17V33.3h.794l1.772-2.923V33.3h.888V28.752H97.83Zm6.114-1.051h-1.54V28.752h-.883V33.3h.883V31.4h1.535V33.3h.889V28.752h-.889Zm4.532-1.619v-.447h-.888v.447a2.1,2.1,0,0,0-1.451.526,1.887,1.887,0,0,0-.463,1.367,1.72,1.72,0,0,0,1.914,1.893v.557h.888v-.557q1.924-.069,1.924-1.893a1.892,1.892,0,0,0-.468-1.367A2.1,2.1,0,0,0,106.7,28.994Zm-.857,3.034a1.124,1.124,0,0,1-.8-.3,1.614,1.614,0,0,1,0-1.682,1.1,1.1,0,0,1,.8-.294Zm1.667-.3a1.137,1.137,0,0,1-.8.3V29.751a1.114,1.114,0,0,1,.8.294A1.578,1.578,0,0,1,107.514,31.728Zm4.8-2.539a1.477,1.477,0,0,0-1.1-.41h-1.761v4.553h.888v-1.74h.873a1.477,1.477,0,0,0,1.1-.41,1.462,1.462,0,0,0,0-2.019Zm-.683,1.435a.68.68,0,0,1-.478.168h-.831V29.546h.831a.622.622,0,0,1,.478,1.073Zm2.718-1.872L112.692,33.3h.925l.273-.81h1.619l.268.81h.925l-1.661-4.553Zm-.205,3,.573-1.656.594,1.656Zm4.08-2a.714.714,0,0,1,.573-.237.725.725,0,0,1,.757.641h.91A1.745,1.745,0,0,0,119.9,29.1a1.814,1.814,0,0,0-2.324.11,1.334,1.334,0,0,0-.384.689,8.959,8.959,0,0,0,0,2.292,1.355,1.355,0,0,0,.384.689,1.8,1.8,0,0,0,2.324.105,1.73,1.73,0,0,0,.568-1.051h-.9a.731.731,0,0,1-.762.647.714.714,0,0,1-.573-.237.826.826,0,0,1-.173-.4,8.266,8.266,0,0,1,0-1.766.824.824,0,0,1,.195-.431Zm2.665-.2h1.188V33.3h.889V29.546h1.188v-.794h-3.265Zm5.815-.794h-1.761V33.3h.888V31.591h.873a1.477,1.477,0,0,0,1.1-.41,1.462,1.462,0,0,0,0-2.019,1.478,1.478,0,0,0-1.078-.41Zm.436,1.872a.68.68,0,0,1-.478.168h-.831V29.546h.831a.627.627,0,0,1,.478,1.078Zm3.254.321-.952-2.192h-.931l1.462,3.154-.137.31a.468.468,0,0,1-.473.289h-.357V33.3h.526a1.083,1.083,0,0,0,1.02-.768l1.609-3.785h-.92Zm2.413,2.361h.9V28.752h-.889Zm3.428-4.553h-1.051l-1.472,2.166,1.577,2.387h1.088l-1.682-2.418Zm.384.794h1.188V33.3h.888V29.546h1.188v-.794h-3.265Zm5.5,1.4-.952-2.192h-.931l1.462,3.154-.137.31a.468.468,0,0,1-.473.289h-.357V33.3h.526a1.083,1.083,0,0,0,1.02-.768l1.609-3.785h-.92Zm4.164-2.192h-1.761V33.3h.888V31.591h.873a1.477,1.477,0,0,0,1.1-.41,1.462,1.462,0,0,0-.005-1.993,1.478,1.478,0,0,0-1.088-.436Zm.436,1.872a.68.68,0,0,1-.478.168h-.831V29.546h.831a.627.627,0,0,1,.478,1.078Zm5.6,2.681h.889V28.752h-.889Zm-1.966-2.839h-.878V28.752H148.6V33.3h1.793a1.461,1.461,0,0,0,1.051-.4,1.494,1.494,0,0,0,0-2.045,1.463,1.463,0,0,0-1.073-.394Zm.4,1.872a.651.651,0,0,1-.478.173h-.8V31.26h.831a.625.625,0,0,1,.478,1.078Z" transform="translate(-42.225 -5.531)"/></g></g></svg>