<svg xmlns="http://www.w3.org/2000/svg" width="34" height="34" viewBox="0 0 34 34"><defs><style>.a{fill:#f1f1f1;}.b{fill:#a39f9e;}.c{fill:#c01;}</style></defs><g transform="translate(-9484 543)"><circle class="a" cx="17" cy="17" r="17" transform="translate(9484 -543)"/><g transform="translate(9492 -536)"><path class="b" d="M0,15.9l.972.463c.046.046.093.093.139.093.925.463,1.8.972,2.73,1.434,1.157.6,2.267,1.249,3.424,1.8a.347.347,0,0,1,.231.37v8.051a1.16,1.16,0,0,1-.324-.185L4.4,25.987C3.239,25.2,1.99,24.367.787,23.535c-.278-.185-.509-.37-.787-.555Z" transform="translate(0 -8.543)"/><path class="b" d="M15.99,1.8c.833.37,1.8.833,3.1,1.388l.093.046a1.011,1.011,0,0,1-.231.139l-.185.093c-.324.185-.555.278-.925.509-.046.046-.139.093-.185.139-.093.046-.139.093-.231.093a.162.162,0,0,0-.093.046c-.416.185-.787.416-1.2.6-1.342.74-2.73,1.434-4.072,2.175a.507.507,0,0,1-.37,0c-.463-.231-.925-.463-1.388-.74C9,5.6,7.661,4.9,6.366,4.164l-.139-.093c-.74-.37-1.11-.555-1.249-.648h0A2.74,2.74,0,0,1,4.7,3.239c.324-.139.6-.278.879-.416L9.882.879c.231-.093.879-.37,1.712-.74A1.566,1.566,0,0,0,11.964,0" transform="translate(-2.525)"/><path class="b" d="M30.96,15.763a4.67,4.67,0,0,0,.694-.324c.046-.046.139-.046.231-.139v7.681a.532.532,0,0,1-.278.509c-1.527.879-3.008,1.758-4.488,2.637-.833.509-1.666,1.018-2.452,1.527a.753.753,0,0,1-.278.139V19.557a.372.372,0,0,1,.231-.416c.6-.278,1.157-.6,1.712-.925L30.5,15.994A.642.642,0,0,0,30.96,15.763Z" transform="translate(-13.1 -8.221)"/><path class="c" d="M6.119,8.8a.162.162,0,0,0,.093.046l.093.093a33.772,33.772,0,0,1,3.933,2.128c.463.231.925.509,1.388.74a.507.507,0,0,0,.37,0c1.342-.694,2.73-1.434,4.072-2.175.139-.093.6-.324,1.2-.6a.753.753,0,0,0,.278-.139l1.619.74c-.324.185-.6.324-.879.463l-4.72,2.5c-.509.278-1.064.555-1.573.833a.28.28,0,0,1-.37,0c-1.851-1.018-3.748-1.99-5.6-3.008-.416-.231-.833-.416-1.2-.648A2.654,2.654,0,0,1,4.5,9.587Z" transform="translate(-2.418 -4.728)"/><path class="c" d="M8.724,25.345V18.821a.366.366,0,0,0-.231-.37c-1.157-.6-2.267-1.2-3.424-1.8-.925-.463-1.8-.972-2.73-1.434-.046-.046-.093-.093-.139-.093V13.5c.37.185.648.324.972.509,1.619.833,3.193,1.712,4.812,2.545.555.278,1.11.6,1.666.925a1.011,1.011,0,0,1,.139.231v8.467Z" transform="translate(-1.182 -7.254)"/><path class="c" d="M29.788,14.8l-.416.278-4.164,2.221c-.555.324-1.157.6-1.712.925a.331.331,0,0,0-.231.416v6.848l-1.018.6A.278.278,0,0,0,22.2,25.9V17.757a.31.31,0,0,1,.185-.324c1.851-.972,3.7-1.99,5.6-3.008.6-.324,1.157-.6,1.8-.925Z" transform="translate(-11.928 -7.254)"/></g></g></svg>