<svg xmlns="http://www.w3.org/2000/svg" width="353.099" height="120" viewBox="0 0 353.099 120"><defs><style>.a{opacity:0.303;}.b{fill:#8c8c8b;}</style></defs><g class="a"><path class="b" d="M1486.9-696.252l-10.955-10.956h5.9l5.053,5.053v5.9ZM1140.813-587.208l-7.016-7.015v-5.9l12.919,12.919Zm28.085,0-35.1-35.1v-5.9l41,41Zm28.085,0L1133.8-650.394v-5.9l69.09,69.087Zm28.085,0L1133.8-678.479v-5.9l97.174,97.172Zm28.527,0-119.8-119.8v-.2h5.7l120,120Zm28.529,0-120-120h5.9l120,120Zm28.53,0-120-120h5.9l120,120Zm28.529,0-120-120h5.9l120,120Zm28.528,0-120-120h5.9l120,120Zm28.528,0-120-120h5.9l120,120Zm28.528,0-120-120h5.9l120,120Zm28.53,0-120-120h5.9l120,120Zm28.528,0-120-120h5.9L1486.9-588.042v.834Zm5.07-23.457-96.542-96.543h5.9l90.638,90.639v5.9Zm0-28.529-68.013-68.014h5.9l62.11,62.11v5.9Zm0-28.529-39.484-39.485h5.9l33.581,33.58v5.9Z" transform="translate(-1133.796 707.208)"/></g></svg>