<svg xmlns="http://www.w3.org/2000/svg" width="322.852" height="21.715" viewBox="0 0 322.852 21.715"><defs><style>.a15328{fill:#bf7653;}.b15328,.c15328{fill:#fff;}.b15328{fill-rule:evenodd;}</style></defs><g transform="translate(-76.087 -173.782)"><g transform="translate(76.087 173.782)"><path class="a15328" d="M81.556,177.371l-5.469,5.469h5.469Z" transform="translate(-76.087 -174.59)"/><path class="a15328" d="M83.942,196.12h5.451V178.208l-5.451,5.45Z" transform="translate(-77.856 -174.779)"/><g transform="translate(6.086)"><path class="b15328" d="M89.393,176.352v-2.569H86.105l-2.163,2.163V181.8Z" transform="translate(-83.942 -173.782)"/><path class="c15328" d="M103.965,182.624c3.847,0,5.595,2.594,5.595,5.741v8.685h-4.954v-8.015a1.976,1.976,0,0,0-2.128-2.186,3.135,3.135,0,0,0-2.388,1.223v8.978H95.136v-13.99h4.372v1.6A5.867,5.867,0,0,1,103.965,182.624Z" transform="translate(-86.463 -175.773)"/><path class="c15328" d="M118.534,195.187v-9.909h-2.3V181.2h2.3V180c0-4.4,3.031-5.655,5.83-5.655a10.565,10.565,0,0,1,3.41.554v4.08a4.369,4.369,0,0,0-2.157-.555c-1.107,0-2.128.466-2.128,1.778v.991h3.731v4.08h-3.728v9.909Z" transform="translate(-91.213 -173.909)"/><path class="c15328" d="M142.6,182.8v4.809c-1.954-.437-4.023.175-4.9,1.516v7.956h-4.956V183.089h4.372v1.894A5.55,5.55,0,0,1,142.6,182.8Z" transform="translate(-94.931 -175.801)"/><path class="c15328" d="M161.558,193.932a1.848,1.848,0,0,0,.555-.088v3.06a7.14,7.14,0,0,1-2.508.438,3.714,3.714,0,0,1-3.322-1.545,7.575,7.575,0,0,1-4.867,1.691c-2.682,0-4.867-1.6-4.867-4.313,0-3.526,3.351-4.6,6.062-4.6a14.43,14.43,0,0,1,3.03.32v-.5c0-.991-.932-1.748-2.914-1.748a13.162,13.162,0,0,0-4.9,1.078v-4.168a19.227,19.227,0,0,1,5.451-.932c4.459,0,7.315,1.544,7.315,6.528v3.905C160.6,193.728,161.063,193.932,161.558,193.932Zm-8.218.2a3.657,3.657,0,0,0,2.3-.729v-1.892a6.032,6.032,0,0,0-1.777-.263c-1.165,0-2.215.408-2.215,1.516A1.5,1.5,0,0,0,153.34,194.136Z" transform="translate(-98.04 -175.773)"/><path class="c15328" d="M178.657,174.348a13.933,13.933,0,0,1,5.916,1.283v5.1a7.948,7.948,0,0,0-4.984-1.661c-3.235,0-6.442,1.778-6.442,6.208,0,3.963,3.206,5.595,6.383,5.595a7.5,7.5,0,0,0,5.187-1.777v5.247a13.78,13.78,0,0,1-5.945,1.282c-5.595,0-11.162-3.059-11.162-10.345C167.611,177.584,173.148,174.348,178.657,174.348Z" transform="translate(-102.782 -173.909)"/><path class="c15328" d="M197.953,173.782v21.279H193V173.782Z" transform="translate(-108.5 -173.782)"/><path class="c15328" d="M217.505,183.188v13.989h-4.372v-1.6a5.87,5.87,0,0,1-4.459,2.039c-3.847,0-5.6-2.594-5.6-5.741v-8.685h4.954V191.2a1.977,1.977,0,0,0,2.128,2.185,3.135,3.135,0,0,0,2.388-1.223v-8.976Z" transform="translate(-110.769 -175.9)"/><path class="c15328" d="M230.487,173.782v8.424a5.623,5.623,0,0,1,4.168-1.574c4.692,0,6.761,3.818,6.761,7.432s-2.069,7.431-6.761,7.431a5.3,5.3,0,0,1-4.75-2.331v1.894h-4.371V173.782Zm2.827,10.929a3.15,3.15,0,0,0-2.827,1.748v3.206a3.151,3.151,0,0,0,2.827,1.749c2.1,0,3-1.719,3-3.351s-.9-3.35-3-3.35Z" transform="translate(-115.826 -173.782)"/></g><g transform="translate(138.611 0.849)"><path class="a15328" d="M263.871,174.878l-8.889,20.4h2.652l2.1-4.926H270.72l2.1,4.926h2.623l-8.859-20.4Zm-3.178,13.2,4.2-9.908c.116-.263.2-.5.32-.788.118.293.205.525.321.788l4.227,9.908Z" transform="translate(-254.982 -174.878)"/><path class="a15328" d="M297.943,194.578l-3.993-11.424h-2.1l-3.993,11.424-3.614-11.424H281.8l4.78,13.989h2.535L292.9,186.33l3.788,10.813h2.535L304,183.154h-2.448Z" transform="translate(-261.02 -176.742)"/><path class="a15328" d="M324.568,194.126v-5.479c0-3.905-2.36-5.946-6.09-5.946a16.586,16.586,0,0,0-5.333.934v2.273a12.837,12.837,0,0,1,5.1-1.049c2.565,0,3.993,1.4,3.993,3.5v.5a19.076,19.076,0,0,0-3.876-.438c-3,0-6.323,1.107-6.323,4.723,0,2.943,2.448,4.255,4.925,4.255a8.21,8.21,0,0,0,5.45-1.866,2.475,2.475,0,0,0,2.565,1.691,5.165,5.165,0,0,0,1.749-.32V195a3.51,3.51,0,0,1-1.078.205A.945.945,0,0,1,324.568,194.126Zm-2.331-.786a6.588,6.588,0,0,1-4.781,2.039c-1.544,0-3.031-.728-3.031-2.36,0-2.039,2.217-2.652,4.256-2.652a19.461,19.461,0,0,1,3.556.409Z" transform="translate(-267.83 -176.64)"/><path class="a15328" d="M336.1,185.539v-2.476H334v13.989h2.331v-8.714a5.235,5.235,0,0,1,5.8-3.236V182.77A6.529,6.529,0,0,0,336.1,185.539Z" transform="translate(-272.776 -176.65)"/><path class="a15328" d="M358.3,183.389a6.886,6.886,0,0,0-5.421-2.448,7.355,7.355,0,0,0,0,14.692,7.175,7.175,0,0,0,5.654-2.681v2.331h2.1v-20.4H358.3Zm0,6.646a5.663,5.663,0,0,1-5.158,3.438,5.195,5.195,0,0,1,0-10.376,5.661,5.661,0,0,1,5.158,3.438Z" transform="translate(-275.452 -174.879)"/><path class="a15328" d="M371.794,186.665c0-1.37,1.6-1.865,3.118-1.865a9.678,9.678,0,0,1,4.809,1.311V183.9a10.82,10.82,0,0,0-4.954-1.194c-2.624,0-5.334,1.137-5.334,4.022,0,5.014,8.917,3.847,8.917,6.791,0,1.4-1.573,1.719-3.555,1.719a10.171,10.171,0,0,1-5.3-1.487v2.273a10.735,10.735,0,0,0,5.42,1.37c3.032,0,5.771-1.02,5.771-3.935C380.683,188.414,371.794,189.7,371.794,186.665Z" transform="translate(-280.754 -176.64)"/></g></g><g transform="translate(323.787 174.124)"><path class="c15328" d="M403.288,174.223c4.164,0,7.211,1.932,7.211,5.762,0,3.47-2.9,5.521-5.672,7.18-2.655,1.569-5.16,2.837-5.189,4.888l11.011-.029v3.107H395.775v-1.568c0-5.008,3.711-6.909,6.818-8.749,2.384-1.388,4.465-2.444,4.465-4.767,0-1.78-1.538-2.715-4.072-2.715a11.2,11.2,0,0,0-6.518,2.293V176.3A11.844,11.844,0,0,1,403.288,174.223Z" transform="translate(-395.775 -174.223)"/><path class="c15328" d="M427.95,174.223c6.366,0,9.2,4.647,9.2,10.65s-2.836,10.651-9.2,10.651-9.2-4.647-9.2-10.651S421.584,174.223,427.95,174.223Zm0,3.137c-3.952,0-5.732,2.746-5.732,7.513s1.78,7.513,5.732,7.513c3.922,0,5.733-2.745,5.733-7.513S431.872,177.36,427.95,177.36Z" transform="translate(-400.948 -174.223)"/><path class="c15328" d="M453.555,174.223c4.163,0,7.21,1.932,7.21,5.762,0,3.47-2.9,5.521-5.672,7.18-2.655,1.569-5.159,2.837-5.189,4.888l11.013-.029v3.107H446.042v-1.568c0-5.008,3.711-6.909,6.818-8.749,2.383-1.388,4.465-2.444,4.465-4.767,0-1.78-1.539-2.715-4.073-2.715a11.2,11.2,0,0,0-6.516,2.293V176.3A11.84,11.84,0,0,1,453.555,174.223Z" transform="translate(-407.094 -174.223)"/><path class="c15328" d="M478.217,174.223c6.366,0,9.2,4.647,9.2,10.65s-2.836,10.651-9.2,10.651-9.2-4.647-9.2-10.651S471.851,174.223,478.217,174.223Zm0,3.137c-3.952,0-5.732,2.746-5.732,7.513s1.78,7.513,5.732,7.513c3.922,0,5.732-2.745,5.732-7.513S482.139,177.36,478.217,177.36Z" transform="translate(-412.267 -174.223)"/></g></g></svg>