<svg id="Слой_1" data-name="Слой 1" xmlns="http://www.w3.org/2000/svg" viewBox="0 0 306.6 84.07"><defs><style>.cls-1{fill:#055762;}.cls-2{fill:#d40f14;}.cls-3{fill:#1d1d1b;}</style></defs><rect class="cls-1" x="114.67" y="17" width="12.63" height="4.78"/><path class="cls-2" d="M18.88,16.17a5.75,5.75,0,0,0,2-4.73,5.75,5.75,0,0,0-2-4.73C17.54,5.6,15.56,5.05,13,5.05H6V17.82h7a9.16,9.16,0,0,0,5.92-1.65M20.51,1.38a10.6,10.6,0,0,1,4.76,4,11.06,11.06,0,0,1,1.65,6.11,11.13,11.13,0,0,1-1.65,6.09,10.58,10.58,0,0,1-4.76,4,17.74,17.74,0,0,1-7.28,1.38H6v9.27H0V0H13.23a17.74,17.74,0,0,1,7.28,1.38"/><polygon class="cls-2" points="60.05 18.6 54.53 18.6 54.53 32.16 48.7 32.16 48.7 18.6 43.19 18.6 35.05 32.16 28.16 32.16 38.27 15.39 28.85 0 35.19 0 43.05 13.46 48.7 13.46 48.7 0 54.53 0 54.53 13.46 60.09 13.46 67.99 0 74.33 0 64.96 15.44 75.02 32.16 68.13 32.16 60.05 18.6"/><path class="cls-2" d="M87.52,21.16Q86.74,25.32,85,27.1h16.31v-22H88.76l-.23,5.7a73.58,73.58,0,0,1-1,10.41m24.35,5.94V39h-5.52V32.16H81.69V39H76.12l0-11.9h1.38q3-.13,4.25-4.48A55.5,55.5,0,0,0,83.29,10.2L83.66,0h23.57V27.1Z"/><polygon class="cls-1" points="134.38 0 140.26 0 140.26 22.83 157.53 0 163.09 0 163.09 32.16 157.21 32.16 157.21 9.37 139.93 32.16 134.38 32.16 134.38 0"/><polygon class="cls-1" points="171.45 7.62 177.19 7.62 177.19 17.59 189.55 17.59 189.55 7.62 195.29 7.62 195.29 32.16 189.55 32.16 189.55 22.46 177.19 22.46 177.19 32.16 171.45 32.16 171.45 7.62"/><path class="cls-1" d="M219.78,24.9a2.78,2.78,0,0,0-1.11-2.41,5.83,5.83,0,0,0-3.44-.81h-6.75V28H215q4.74,0,4.74-3.08m-11.3-7h6q4.45,0,4.46-3.08t-4.46-3h-6Zm16.85,7.4a5.91,5.91,0,0,1-2.48,5.1q-2.47,1.79-7.35,1.79H203V7.62h12a12.8,12.8,0,0,1,7,1.66A5.28,5.28,0,0,1,224.55,14a5.46,5.46,0,0,1-1,3.27,6.62,6.62,0,0,1-2.77,2.16q4.54,1.37,4.54,5.88"/><path class="cls-1" d="M237.35,13.57A6.92,6.92,0,0,0,235,17.91H249a6.81,6.81,0,0,0-2.25-4.31A6.88,6.88,0,0,0,242,11.94a7,7,0,0,0-4.66,1.63m17,8.16H235.08A6.61,6.61,0,0,0,237.71,26,8.67,8.67,0,0,0,243,27.61a8.91,8.91,0,0,0,6.66-2.67l3.08,3.54a10.35,10.35,0,0,1-4.18,3,16.57,16.57,0,0,1-12.82-.6A11.61,11.61,0,0,1,231,26.39a12.62,12.62,0,0,1-1.68-6.5A12.78,12.78,0,0,1,231,13.44,11.55,11.55,0,0,1,235.49,9,13.21,13.21,0,0,1,242,7.35a12.83,12.83,0,0,1,6.41,1.59,11.24,11.24,0,0,1,4.41,4.45A13.58,13.58,0,0,1,254.41,20c0,.4,0,1-.09,1.7"/><path class="cls-1" d="M265,30.87a11.68,11.68,0,0,1-4.73-4.48,12.53,12.53,0,0,1-1.7-6.5,12.37,12.37,0,0,1,1.7-6.47A11.81,11.81,0,0,1,265,9a14.4,14.4,0,0,1,6.87-1.61,13.28,13.28,0,0,1,6.37,1.47,9.55,9.55,0,0,1,4.11,4.23l-4.41,2.57a7.06,7.06,0,0,0-2.64-2.55,7.71,7.71,0,0,0-8.8,1.24,7.48,7.48,0,0,0-2.12,5.58,7.51,7.51,0,0,0,2.1,5.58,7.74,7.74,0,0,0,8.82,1.24,7,7,0,0,0,2.64-2.55l4.41,2.58A10,10,0,0,1,278.19,31a13,13,0,0,1-6.32,1.49A14.39,14.39,0,0,1,265,30.87"/><polygon class="cls-1" points="306.6 12.49 298.01 12.49 298.01 32.16 292.27 32.16 292.27 12.49 283.63 12.49 283.63 7.62 306.6 7.62 306.6 12.49"/><polygon class="cls-3" points="17.77 47.13 19.18 47.13 19.18 58.35 27.84 47.13 29.14 47.13 29.14 60.67 27.73 60.67 27.73 49.47 19.06 60.67 17.77 60.67 17.77 47.13"/><polygon class="cls-3" points="33.37 50.49 34.75 50.49 34.75 55 41.15 55 41.15 50.49 42.52 50.49 42.52 60.66 41.15 60.66 41.15 56.18 34.75 56.18 34.75 60.66 33.37 60.66 33.37 50.49"/><path class="cls-3" d="M53,59.16a1.49,1.49,0,0,0,.66-1.34A1.55,1.55,0,0,0,53,56.48,3.23,3.23,0,0,0,51.13,56H47.76v3.54H51a3.72,3.72,0,0,0,2-.42M47.76,55h3.06a3.08,3.08,0,0,0,1.81-.45,1.48,1.48,0,0,0,.63-1.29A1.44,1.44,0,0,0,52.63,52a3.25,3.25,0,0,0-1.81-.42H47.76ZM55,57.9A2.38,2.38,0,0,1,54,60a5,5,0,0,1-2.94.72H46.43V50.49h4.49a4.73,4.73,0,0,1,2.72.68,2.2,2.2,0,0,1,1,1.93,2.3,2.3,0,0,1-.45,1.43,2.82,2.82,0,0,1-1.27.88A2.36,2.36,0,0,1,55,57.9"/><path class="cls-3" d="M59.71,52.53A3.66,3.66,0,0,0,58.58,55h7.21a3.71,3.71,0,0,0-1.13-2.45,3.73,3.73,0,0,0-4.95,0M67.09,56H58.58a3.59,3.59,0,0,0,1.22,2.56,4,4,0,0,0,2.78,1,4.5,4.5,0,0,0,1.74-.34,3.89,3.89,0,0,0,1.38-1l.77.89a4.44,4.44,0,0,1-1.7,1.24,6.14,6.14,0,0,1-5-.24,4.8,4.8,0,0,1-1.89-1.85,5.3,5.3,0,0,1-.68-2.67,5.5,5.5,0,0,1,.65-2.67,4.64,4.64,0,0,1,1.78-1.84,5,5,0,0,1,2.54-.66,4.91,4.91,0,0,1,2.54.66,4.7,4.7,0,0,1,1.76,1.83,5.59,5.59,0,0,1,.64,2.68Z"/><path class="cls-3" d="M71.7,60.11a4.79,4.79,0,0,1-1.86-1.85,5.26,5.26,0,0,1-.68-2.68,5.2,5.2,0,0,1,.68-2.67,4.77,4.77,0,0,1,1.86-1.84,5.59,5.59,0,0,1,2.7-.66,5.24,5.24,0,0,1,2.35.52,3.81,3.81,0,0,1,1.63,1.5l-1,.69A3.23,3.23,0,0,0,76.08,52a3.76,3.76,0,0,0-1.68-.37,3.93,3.93,0,0,0-2,.49A3.45,3.45,0,0,0,71,53.51a4.64,4.64,0,0,0,0,4.15,3.48,3.48,0,0,0,1.38,1.39,4.18,4.18,0,0,0,3.66.13,3.15,3.15,0,0,0,1.28-1.13l1,.7a3.78,3.78,0,0,1-1.64,1.5,5.29,5.29,0,0,1-2.34.51,5.59,5.59,0,0,1-2.7-.65"/><polygon class="cls-3" points="88.02 51.71 84.17 51.71 84.17 60.66 82.79 60.66 82.79 51.71 78.94 51.71 78.94 50.49 88.02 50.49 88.02 51.71"/><polygon class="cls-3" points="90.01 50.49 91.38 50.49 91.38 58.58 98.17 50.49 99.39 50.49 99.39 60.66 98.02 60.66 98.02 52.58 91.25 60.66 90.01 60.66 90.01 50.49"/><polygon class="cls-3" points="113.92 59.47 113.92 63.22 112.62 63.22 112.62 60.67 103.31 60.67 103.31 50.49 104.69 50.49 104.69 59.47 110.89 59.47 110.89 50.49 112.27 50.49 112.27 59.47 113.92 59.47"/><polygon class="cls-3" points="116.55 50.49 117.92 50.49 117.92 58.58 124.71 50.49 125.93 50.49 125.93 60.66 124.55 60.66 124.55 52.58 117.78 60.66 116.55 60.66 116.55 50.49"/><path class="cls-3" d="M136,59.05a3.48,3.48,0,0,0,1.34-1.4,4.7,4.7,0,0,0,0-4.14,3.42,3.42,0,0,0-1.34-1.4,4.05,4.05,0,0,0-3.9,0,3.5,3.5,0,0,0-1.35,1.4,4.62,4.62,0,0,0,0,4.14,3.57,3.57,0,0,0,1.35,1.4,4.05,4.05,0,0,0,3.9,0m-4.6,1.05a4.86,4.86,0,0,1-1.86-1.85,5.66,5.66,0,0,1,0-5.34,4.77,4.77,0,0,1,1.86-1.84,5.65,5.65,0,0,1,5.3,0,4.74,4.74,0,0,1,1.85,1.84,5.73,5.73,0,0,1,0,5.34,4.84,4.84,0,0,1-1.85,1.85,5.65,5.65,0,0,1-5.3,0"/><polygon class="cls-3" points="142.15 50.49 143.53 50.49 143.53 55 149.93 55 149.93 50.49 151.3 50.49 151.3 60.66 149.93 60.66 149.93 56.18 143.53 56.18 143.53 60.66 142.15 60.66 142.15 50.49"/><polygon class="cls-3" points="155.21 50.49 156.58 50.49 156.58 55 162.99 55 162.99 50.49 164.36 50.49 164.36 60.66 162.99 60.66 162.99 56.18 156.58 56.18 156.58 60.66 155.21 60.66 155.21 50.49"/><path class="cls-3" d="M173.28,59.15a3.22,3.22,0,0,0,1.23-1.54V56h-3.19c-1.74,0-2.61.6-2.61,1.82a1.66,1.66,0,0,0,.67,1.4,3.13,3.13,0,0,0,1.9.51,3.68,3.68,0,0,0,2-.53m1.54-7.74a3.85,3.85,0,0,1,1.07,3v6.3h-1.32V59.08a3.16,3.16,0,0,1-1.36,1.24,4.86,4.86,0,0,1-2.14.44,4.19,4.19,0,0,1-2.71-.81,2.81,2.81,0,0,1-.07-4.24,4.67,4.67,0,0,1,3-.79h3.23V54.3a2.61,2.61,0,0,0-.73-2,3,3,0,0,0-2.15-.68,5.54,5.54,0,0,0-1.86.31,5,5,0,0,0-1.53.88l-.61-1a5.43,5.43,0,0,1,1.85-1,7.55,7.55,0,0,1,2.28-.35,4.33,4.33,0,0,1,3.06,1"/><path class="cls-3" d="M183,56.28h3.08V51.71h-3c-2,0-3,.77-3,2.3s1,2.27,2.88,2.27m4.33-5.79V60.66H186.1V57.3h-3.58l-2.36,3.36h-1.49l2.53-3.55A3.42,3.42,0,0,1,179.39,56a3.47,3.47,0,0,1,.52-4.6,5.1,5.1,0,0,1,3.17-.89Z"/><polygon class="cls-3" points="200.03 56.14 197.71 56.14 197.71 60.67 196.33 60.67 196.33 50.49 197.71 50.49 197.71 54.96 200.05 54.96 203.63 50.49 205.11 50.49 201.11 55.42 205.41 60.67 203.78 60.67 200.03 56.14"/><path class="cls-3" d="M213.37,59.05a3.48,3.48,0,0,0,1.34-1.4,4.7,4.7,0,0,0,0-4.14,3.42,3.42,0,0,0-1.34-1.4,3.88,3.88,0,0,0-2-.5,3.81,3.81,0,0,0-1.94.5,3.46,3.46,0,0,0-1.36,1.4,4.62,4.62,0,0,0,0,4.14,3.52,3.52,0,0,0,1.36,1.4,3.81,3.81,0,0,0,1.94.5,3.88,3.88,0,0,0,2-.5m-4.6,1.05a4.86,4.86,0,0,1-1.86-1.85,5.66,5.66,0,0,1,0-5.34,4.77,4.77,0,0,1,1.86-1.84,5.65,5.65,0,0,1,5.3,0,4.74,4.74,0,0,1,1.85,1.84,5.73,5.73,0,0,1,0,5.34,4.84,4.84,0,0,1-1.85,1.85,5.65,5.65,0,0,1-5.3,0"/><polygon class="cls-3" points="230.9 50.49 230.9 60.66 229.64 60.66 229.64 52.62 225.52 59.43 224.9 59.43 220.78 52.6 220.78 60.66 219.52 60.66 219.52 50.49 220.92 50.49 225.23 57.82 229.62 50.49 230.9 50.49"/><polygon class="cls-3" points="243.93 50.49 243.93 60.66 242.56 60.66 242.56 51.71 236.18 51.71 236.18 60.66 234.8 60.66 234.8 50.49 243.93 50.49"/><path class="cls-3" d="M252.85,59.15a3.23,3.23,0,0,0,1.24-1.54V56H250.9c-1.74,0-2.61.6-2.61,1.82a1.66,1.66,0,0,0,.67,1.4,3.09,3.09,0,0,0,1.9.51,3.65,3.65,0,0,0,2-.53m1.55-7.74a3.84,3.84,0,0,1,1.06,3v6.3h-1.31V59.08a3.24,3.24,0,0,1-1.37,1.24,4.85,4.85,0,0,1-2.13.44,4.19,4.19,0,0,1-2.71-.81,2.79,2.79,0,0,1-.07-4.24,4.63,4.63,0,0,1,3-.79h3.23V54.3a2.62,2.62,0,0,0-.74-2,3,3,0,0,0-2.15-.68,5.49,5.49,0,0,0-1.85.31,5,5,0,0,0-1.53.88l-.62-1a5.57,5.57,0,0,1,1.86-1,7.45,7.45,0,0,1,2.28-.35,4.33,4.33,0,0,1,3.06,1"/><polygon class="cls-3" points="259.12 50.49 260.49 50.49 260.49 55 266.89 55 266.89 50.49 268.27 50.49 268.27 60.66 266.89 60.66 266.89 56.18 260.49 56.18 260.49 60.66 259.12 60.66 259.12 50.49"/><polygon class="cls-3" points="272.17 50.49 273.55 50.49 273.55 58.58 280.34 50.49 281.56 50.49 281.56 60.66 280.18 60.66 280.18 52.58 273.41 60.66 272.17 60.66 272.17 50.49"/><path class="cls-3" d="M289,56.28H292V51.71h-3c-2,0-3,.77-3,2.3s1,2.27,2.88,2.27m4.33-5.79V60.66H292V57.3h-3.58l-2.36,3.36h-1.49l2.53-3.55A3.49,3.49,0,0,1,285.32,56a3.11,3.11,0,0,1-.63-2,3.07,3.07,0,0,1,1.16-2.6,5.1,5.1,0,0,1,3.17-.89Z"/><polygon class="cls-3" points="93.38 71.35 93.38 81.52 92 81.52 92 72.56 85.62 72.56 85.62 81.52 84.24 81.52 84.24 71.35 93.38 71.35"/><path class="cls-3" d="M103.42,79.91a3.4,3.4,0,0,0,1.35-1.41,4.33,4.33,0,0,0,.48-2.07,4.39,4.39,0,0,0-.48-2.07,3.44,3.44,0,0,0-1.35-1.4,3.81,3.81,0,0,0-1.94-.49,3.87,3.87,0,0,0-2,.49,3.57,3.57,0,0,0-1.35,1.4,4.28,4.28,0,0,0-.49,2.07,4.22,4.22,0,0,0,.49,2.07,3.53,3.53,0,0,0,1.35,1.41,4,4,0,0,0,2,.49,3.91,3.91,0,0,0,1.94-.49m-4.59,1A4.86,4.86,0,0,1,97,79.1a5.66,5.66,0,0,1,0-5.34,4.84,4.84,0,0,1,1.86-1.84,5.73,5.73,0,0,1,5.3,0A4.81,4.81,0,0,1,106,73.76a5.73,5.73,0,0,1,0,5.34A4.84,4.84,0,0,1,104.13,81a5.58,5.58,0,0,1-5.3,0"/><path class="cls-3" d="M117.86,71.35V81.52h-1.37v-9h-4.88l-.13,2.52a18.28,18.28,0,0,1-.74,4.87,2.12,2.12,0,0,1-2.07,1.71,4,4,0,0,1-1-.16l.09-1.18.49.08a1.3,1.3,0,0,0,1.2-.74,5,5,0,0,0,.54-1.82c.09-.72.17-1.67.23-2.86l.18-3.63Z"/><polygon class="cls-3" points="121.77 71.35 123.14 71.35 123.14 75.85 129.54 75.85 129.54 71.35 130.92 71.35 130.92 81.52 129.54 81.52 129.54 77.03 123.14 77.03 123.14 81.52 121.77 81.52 121.77 71.35"/><path class="cls-3" d="M141,79.91a3.44,3.44,0,0,0,1.34-1.41,4.33,4.33,0,0,0,.48-2.07,4.39,4.39,0,0,0-.48-2.07A3.48,3.48,0,0,0,141,73a3.87,3.87,0,0,0-1.95-.49,3.81,3.81,0,0,0-1.94.49,3.52,3.52,0,0,0-1.36,1.4,4.28,4.28,0,0,0-.49,2.07,4.22,4.22,0,0,0,.49,2.07,3.49,3.49,0,0,0,1.36,1.41,3.91,3.91,0,0,0,1.94.49,4,4,0,0,0,1.95-.49m-4.6,1a4.86,4.86,0,0,1-1.86-1.85,5.66,5.66,0,0,1,0-5.34,4.84,4.84,0,0,1,1.86-1.84,5.73,5.73,0,0,1,5.3,0,4.81,4.81,0,0,1,1.85,1.84,5.73,5.73,0,0,1,0,5.34A4.84,4.84,0,0,1,141.67,81a5.58,5.58,0,0,1-5.3,0"/><polygon class="cls-3" points="154.32 72.56 148.5 72.56 148.5 81.52 147.13 81.52 147.13 71.35 154.32 71.35 154.32 72.56"/><path class="cls-3" d="M162,79.91a3.44,3.44,0,0,0,1.34-1.41,4.22,4.22,0,0,0,.49-2.07,4.28,4.28,0,0,0-.49-2.07A3.48,3.48,0,0,0,162,73a4.11,4.11,0,0,0-3.89,0,3.57,3.57,0,0,0-1.35,1.4,4.28,4.28,0,0,0-.5,2.07,4.23,4.23,0,0,0,.5,2.07,3.53,3.53,0,0,0,1.35,1.41,4.11,4.11,0,0,0,3.89,0m-4.59,1a4.86,4.86,0,0,1-1.86-1.85,5.25,5.25,0,0,1-.68-2.67,5.3,5.3,0,0,1,.68-2.67,4.84,4.84,0,0,1,1.86-1.84,5.41,5.41,0,0,1,2.64-.65,5.48,5.48,0,0,1,2.66.65,4.78,4.78,0,0,1,1.84,1.84,5.66,5.66,0,0,1,0,5.34A4.81,4.81,0,0,1,162.72,81a5.39,5.39,0,0,1-2.66.67,5.31,5.31,0,0,1-2.64-.67"/><polygon class="cls-3" points="183.84 80.32 183.84 84.07 182.54 84.07 182.54 81.52 173.24 81.52 173.24 71.35 174.61 71.35 174.61 80.32 180.82 80.32 180.82 71.35 182.19 71.35 182.19 80.32 183.84 80.32"/><polygon class="cls-3" points="186.47 71.35 187.84 71.35 187.84 79.43 194.63 71.35 195.85 71.35 195.85 81.52 194.47 81.52 194.47 73.44 187.7 81.52 186.47 81.52 186.47 71.35"/><polygon class="cls-3" points="203.47 76.99 201.15 76.99 201.15 81.52 199.78 81.52 199.78 71.35 201.15 71.35 201.15 75.81 203.49 75.81 207.07 71.35 208.55 71.35 204.55 76.28 208.85 81.52 207.22 81.52 203.47 76.99"/><path class="cls-3" d="M219.33,71.35V81.52H218v-9h-4.88L213,75.08a18.7,18.7,0,0,1-.74,4.87,2.12,2.12,0,0,1-2.07,1.71,4.19,4.19,0,0,1-1-.16l.1-1.18.49.08a1.3,1.3,0,0,0,1.2-.74,5,5,0,0,0,.54-1.82c.09-.72.17-1.67.23-2.86l.17-3.63Z"/><path class="cls-3" d="M228.25,80a3.13,3.13,0,0,0,1.23-1.54V76.8h-3.19c-1.74,0-2.61.61-2.61,1.82a1.67,1.67,0,0,0,.68,1.4,3.08,3.08,0,0,0,1.89.51,3.6,3.6,0,0,0,2-.53m1.54-7.74a3.86,3.86,0,0,1,1.07,2.95v6.31h-1.32V79.93a3.16,3.16,0,0,1-1.36,1.24,4.73,4.73,0,0,1-2.14.44,4.19,4.19,0,0,1-2.71-.81,2.79,2.79,0,0,1-.06-4.23,4.54,4.54,0,0,1,3-.8h3.23v-.61a2.58,2.58,0,0,0-.73-2,3,3,0,0,0-2.15-.69,5.49,5.49,0,0,0-1.85.31,4.6,4.6,0,0,0-1.53.89l-.62-1a5.25,5.25,0,0,1,1.85-1,7.27,7.27,0,0,1,2.29-.36,4.31,4.31,0,0,1,3,1"/></svg>